<svg width="360" height="360" viewBox="0 0 360 360" fill="none" xmlns="http://www.w3.org/2000/svg">
<g clip-path="url(#clip0_1628_10908)">
<path d="M83.0091 239.616V243.386H67.2891V223.086H82.6291V226.856H71.9591V231.266H81.3891V234.916H71.9591V239.616H83.0091Z" fill="url(#paint0_linear_1628_10908)"/>
<path d="M105.979 223.086L97.1891 243.386H92.5491L83.7891 223.086H88.8591L95.0391 237.586L101.309 223.086H105.979Z" fill="url(#paint1_linear_1628_10908)"/>
<path d="M123.4 239.616V243.386H107.68V223.086H123.02V226.856H112.35V231.266H121.78V234.916H112.35V239.616H123.4Z" fill="url(#paint2_linear_1628_10908)"/>
<path d="M140.081 243.386L136.161 237.736H131.841V243.386H127.141V223.086H135.931C141.351 223.086 144.751 225.896 144.751 230.456C144.751 233.506 143.211 235.736 140.571 236.866L145.121 243.396H140.071L140.081 243.386ZM135.671 226.906H131.841V233.986H135.671C138.541 233.986 139.991 232.656 139.991 230.446C139.991 228.236 138.541 226.906 135.671 226.906Z" fill="url(#paint3_linear_1628_10908)"/>
<path d="M157.919 236.196V243.386H153.219V236.136L145.359 223.086H150.349L155.769 232.106L161.189 223.086H165.799L157.909 236.196H157.919Z" fill="url(#paint4_linear_1628_10908)"/>
<path d="M194.62 223.086V243.386H189.92V235.066H180.7V243.386H176V223.086H180.7V231.086H189.92V223.086H194.62Z" fill="url(#paint5_linear_1628_10908)"/>
<path d="M198.172 233.234C198.172 227.204 202.872 222.734 209.282 222.734C215.692 222.734 220.392 227.174 220.392 233.234C220.392 239.294 215.662 243.734 209.282 243.734C202.902 243.734 198.172 239.264 198.172 233.234ZM215.632 233.234C215.632 229.374 212.902 226.734 209.282 226.734C205.662 226.734 202.932 229.374 202.932 233.234C202.932 237.094 205.662 239.734 209.282 239.734C212.902 239.734 215.632 237.094 215.632 233.234Z" fill="url(#paint6_linear_1628_10908)"/>
<path d="M242.41 243.386L242.38 231.206L236.41 241.246H234.29L228.34 231.466V243.386H223.93V223.086H227.82L235.42 235.706L242.9 223.086H246.76L246.82 243.386H242.41Z" fill="url(#paint7_linear_1628_10908)"/>
<path d="M267.361 239.616V243.386H251.641V223.086H266.981V226.856H256.311V231.266H265.741V234.916H256.311V239.616H267.361Z" fill="url(#paint8_linear_1628_10908)"/>
<path d="M62.6875 257.84C62.6875 254.52 65.2175 252.07 68.6375 252.07C70.2875 252.07 71.7775 252.62 72.7875 253.73L72.0275 254.49C71.1075 253.55 69.9675 253.14 68.6675 253.14C65.9275 253.14 63.8775 255.15 63.8775 257.84C63.8775 260.53 65.9375 262.54 68.6675 262.54C69.9675 262.54 71.0975 262.14 72.0275 261.18L72.7875 261.94C71.7775 263.04 70.2875 263.61 68.6275 263.61C65.2275 263.61 62.6975 261.16 62.6975 257.84H62.6875Z" fill="url(#paint9_linear_1628_10908)"/>
<path d="M73.8867 259.252C73.8867 256.722 75.7367 254.922 78.2267 254.922C80.7167 254.922 82.5567 256.722 82.5567 259.252C82.5567 261.782 80.7267 263.592 78.2267 263.592C75.7267 263.592 73.8867 261.772 73.8867 259.252ZM81.3867 259.252C81.3867 257.252 80.0367 255.932 78.2267 255.932C76.4167 255.932 75.0467 257.262 75.0467 259.252C75.0467 261.242 76.4067 262.572 78.2267 262.572C80.0467 262.572 81.3867 261.242 81.3867 259.252Z" fill="url(#paint10_linear_1628_10908)"/>
<path d="M92.7462 258.572V263.512H91.5962V258.682C91.5962 256.882 90.6562 255.962 89.0362 255.962C87.2062 255.962 86.0562 257.102 86.0562 259.042V263.512H84.9062V254.992H86.0062V256.562C86.6262 255.522 87.7662 254.922 89.2462 254.922C91.3162 254.922 92.7462 256.122 92.7462 258.562V258.572Z" fill="url(#paint11_linear_1628_10908)"/>
<path d="M103.738 258.572V263.512H102.588V258.682C102.588 256.882 101.648 255.962 100.028 255.962C98.1984 255.962 97.0484 257.102 97.0484 259.042V263.512H95.8984V254.992H96.9984V256.562C97.6184 255.522 98.7584 254.922 100.238 254.922C102.308 254.922 103.738 256.122 103.738 258.562V258.572Z" fill="url(#paint12_linear_1628_10908)"/>
<path d="M114.327 259.612H107.197C107.327 261.392 108.687 262.582 110.547 262.582C111.587 262.582 112.507 262.212 113.157 261.462L113.807 262.202C113.047 263.112 111.867 263.592 110.517 263.592C107.857 263.592 106.047 261.772 106.047 259.252C106.047 256.732 107.817 254.922 110.207 254.922C112.597 254.922 114.337 256.692 114.337 259.252C114.337 259.352 114.317 259.472 114.317 259.602L114.327 259.612ZM107.197 258.752H113.237C113.087 257.082 111.877 255.912 110.207 255.912C108.537 255.912 107.337 257.082 107.197 258.752Z" fill="url(#paint13_linear_1628_10908)"/>
<path d="M115.848 259.252C115.848 256.702 117.698 254.922 120.238 254.922C121.678 254.922 122.898 255.492 123.568 256.612L122.708 257.192C122.128 256.332 121.218 255.932 120.228 255.932C118.368 255.932 116.998 257.262 116.998 259.252C116.998 261.242 118.358 262.572 120.228 262.572C121.218 262.572 122.118 262.182 122.708 261.322L123.568 261.902C122.888 263.002 121.678 263.592 120.238 263.592C117.698 263.592 115.848 261.792 115.848 259.252Z" fill="url(#paint14_linear_1628_10908)"/>
<path d="M130.418 263.001C129.958 263.401 129.278 263.601 128.618 263.601C127.018 263.601 126.118 262.691 126.118 261.121V255.971H124.598V255.001H126.118V253.141H127.268V255.001H129.858V255.971H127.268V261.061C127.268 262.061 127.788 262.611 128.748 262.611C129.218 262.611 129.688 262.461 130.008 262.171L130.408 263.001H130.418Z" fill="url(#paint15_linear_1628_10908)"/>
<path d="M132.258 252.302C132.258 251.862 132.628 251.492 133.098 251.492C133.568 251.492 133.938 251.852 133.938 252.282C133.938 252.752 133.578 253.122 133.098 253.122C132.618 253.122 132.258 252.752 132.258 252.292V252.302ZM132.518 254.992H133.668V263.512H132.518V254.992Z" fill="url(#paint16_linear_1628_10908)"/>
<path d="M144.715 258.572V263.512H143.565V258.682C143.565 256.882 142.625 255.962 141.005 255.962C139.175 255.962 138.025 257.102 138.025 259.042V263.512H136.875V254.992H137.975V256.562C138.595 255.522 139.735 254.922 141.215 254.922C143.285 254.922 144.715 256.122 144.715 258.562V258.572Z" fill="url(#paint17_linear_1628_10908)"/>
<path d="M155.789 254.995V262.485C155.789 265.415 154.349 266.745 151.529 266.745C149.979 266.745 148.449 266.275 147.559 265.435L148.139 264.565C148.949 265.295 150.179 265.735 151.499 265.735C153.659 265.735 154.639 264.745 154.639 262.645V261.565C153.929 262.645 152.709 263.215 151.319 263.215C148.889 263.215 147.039 261.515 147.039 259.065C147.039 256.615 148.889 254.945 151.319 254.945C152.749 254.945 153.979 255.525 154.689 256.645V255.005H155.789V254.995ZM154.669 259.045C154.669 257.195 153.309 255.935 151.429 255.935C149.549 255.935 148.199 257.195 148.199 259.045C148.199 260.895 149.549 262.165 151.429 262.165C153.309 262.165 154.669 260.885 154.669 259.045Z" fill="url(#paint18_linear_1628_10908)"/>
<path d="M171.629 263.694L170.059 262.074C169.099 263.094 167.809 263.614 166.269 263.614C164.049 263.614 162.469 262.444 162.469 260.724C162.469 259.384 163.249 258.394 165.319 257.194C164.219 256.064 163.899 255.384 163.899 254.504C163.899 253.064 165.019 252.094 166.769 252.094C168.369 252.094 169.409 252.934 169.409 254.344C169.409 255.474 168.729 256.274 166.879 257.344L169.989 260.554C170.329 259.954 170.589 259.224 170.749 258.364L171.689 258.654C171.479 259.674 171.139 260.554 170.689 261.264L172.309 262.934L171.649 263.694H171.629ZM169.379 261.374L165.959 257.854C164.139 258.894 163.589 259.604 163.589 260.604C163.589 261.834 164.689 262.644 166.329 262.644C167.559 262.644 168.599 262.224 169.369 261.364L169.379 261.374ZM164.959 254.494C164.959 255.154 165.199 255.624 166.239 256.684C167.879 255.744 168.409 255.174 168.409 254.364C168.409 253.554 167.809 252.954 166.749 252.954C165.619 252.954 164.949 253.584 164.949 254.494H164.959Z" fill="url(#paint19_linear_1628_10908)"/>
<path d="M177.527 262.146L177.997 261.226C178.807 262.026 180.247 262.606 181.737 262.606C183.857 262.606 184.787 261.716 184.787 260.596C184.787 257.486 177.807 259.396 177.807 255.196C177.807 253.526 179.107 252.086 181.987 252.086C183.267 252.086 184.597 252.456 185.507 253.096L185.107 254.056C184.137 253.426 182.997 253.116 181.997 253.116C179.927 253.116 178.997 254.036 178.997 255.176C178.997 258.286 185.977 256.406 185.977 260.536C185.977 262.206 184.647 263.636 181.747 263.636C180.047 263.636 178.377 263.036 177.537 262.156L177.527 262.146Z" fill="url(#paint20_linear_1628_10908)"/>
<path d="M188.086 252.302C188.086 251.862 188.456 251.492 188.926 251.492C189.396 251.492 189.766 251.852 189.766 252.282C189.766 252.752 189.406 253.122 188.926 253.122C188.446 253.122 188.086 252.752 188.086 252.292V252.302ZM188.346 254.992H189.496V263.512H188.346V254.992Z" fill="url(#paint21_linear_1628_10908)"/>
<path d="M206.767 258.577V263.517H205.617V258.688C205.617 256.888 204.707 255.967 203.167 255.967C201.417 255.967 200.317 257.107 200.317 259.047V263.517H199.167V258.688C199.167 256.888 198.257 255.967 196.707 255.967C194.977 255.967 193.857 257.107 193.857 259.047V263.517H192.707V254.997H193.807V256.557C194.407 255.537 195.507 254.938 196.937 254.938C198.367 254.938 199.447 255.537 199.967 256.737C200.587 255.637 201.797 254.938 203.337 254.938C205.407 254.938 206.767 256.137 206.767 258.577Z" fill="url(#paint22_linear_1628_10908)"/>
<path d="M218.558 259.252C218.558 261.842 216.738 263.592 214.308 263.592C212.948 263.592 211.778 263.012 211.068 261.902V266.652H209.918V254.982H211.018V256.672C211.718 255.532 212.898 254.922 214.308 254.922C216.738 254.922 218.558 256.672 218.558 259.252ZM217.408 259.252C217.408 257.272 216.028 255.932 214.228 255.932C212.428 255.932 211.048 257.272 211.048 259.252C211.048 261.232 212.408 262.572 214.228 262.572C216.048 262.572 217.408 261.242 217.408 259.252Z" fill="url(#paint23_linear_1628_10908)"/>
<path d="M220.918 251.492H222.068V263.512H220.918V251.492Z" fill="url(#paint24_linear_1628_10908)"/>
<path d="M225.016 252.302C225.016 251.862 225.386 251.492 225.856 251.492C226.326 251.492 226.696 251.852 226.696 252.282C226.696 252.752 226.336 253.122 225.856 253.122C225.376 253.122 225.016 252.752 225.016 252.292V252.302ZM225.276 254.992H226.426V263.512H225.276V254.992Z" fill="url(#paint25_linear_1628_10908)"/>
<path d="M230.96 253.994V254.994H233.58V255.964H230.99V263.514H229.84V255.964H228.32V254.994H229.84V253.944C229.84 252.424 230.75 251.414 232.42 251.414C233.05 251.414 233.7 251.594 234.12 251.944L233.73 252.804C233.4 252.524 232.95 252.384 232.47 252.384C231.48 252.384 230.96 252.934 230.96 253.984V253.994Z" fill="url(#paint26_linear_1628_10908)"/>
<path d="M242.467 254.989L238.207 264.529C237.497 266.199 236.587 266.729 235.367 266.729C234.567 266.729 233.807 266.469 233.297 265.949L233.827 265.089C234.247 265.509 234.767 265.739 235.387 265.739C236.147 265.739 236.667 265.379 237.147 264.309L237.517 263.479L233.707 254.969H234.907L238.117 262.209L241.327 254.969H242.457L242.467 254.989Z" fill="url(#paint27_linear_1628_10908)"/>
<path d="M243.836 252.302C243.836 251.862 244.206 251.492 244.676 251.492C245.146 251.492 245.516 251.852 245.516 252.282C245.516 252.752 245.156 253.122 244.676 253.122C244.196 253.122 243.836 252.752 243.836 252.292V252.302ZM244.096 254.992H245.246V263.512H244.096V254.992Z" fill="url(#paint28_linear_1628_10908)"/>
<path d="M256.297 258.572V263.512H255.147V258.682C255.147 256.882 254.207 255.962 252.587 255.962C250.757 255.962 249.607 257.102 249.607 259.042V263.512H248.457V254.992H249.557V256.562C250.177 255.522 251.317 254.922 252.797 254.922C254.867 254.922 256.297 256.122 256.297 258.562V258.572Z" fill="url(#paint29_linear_1628_10908)"/>
<path d="M267.359 254.995V262.485C267.359 265.415 265.919 266.745 263.099 266.745C261.549 266.745 260.019 266.275 259.129 265.435L259.709 264.565C260.519 265.295 261.749 265.735 263.069 265.735C265.229 265.735 266.209 264.745 266.209 262.645V261.565C265.499 262.645 264.279 263.215 262.889 263.215C260.459 263.215 258.609 261.515 258.609 259.065C258.609 256.615 260.459 254.945 262.889 254.945C264.319 254.945 265.549 255.525 266.259 256.645V255.005H267.359V254.995ZM266.249 259.045C266.249 257.195 264.889 255.935 263.009 255.935C261.129 255.935 259.779 257.195 259.779 259.045C259.779 260.895 261.129 262.165 263.009 262.165C264.889 262.165 266.249 260.885 266.249 259.045Z" fill="url(#paint30_linear_1628_10908)"/>
<path d="M147.406 104.01L185.426 142.04H196.186L147.406 93.25L135.836 104.82L141.216 110.2L147.406 104.01Z" fill="url(#paint31_linear_1628_10908)"/>
<path d="M133.926 162.781H114.266V198.841H133.926V162.781Z" fill="url(#paint32_linear_1628_10908)"/>
<path d="M271.347 221.704L297.307 206.714L271.347 191.734V202.254H94.6769V162.784V153.864H86.7969L124.097 116.564L125.347 117.804L131.887 124.344L170.327 162.784H183.397L138.427 117.804L131.887 111.274L124.097 103.484L64.7969 162.784H74.0369H77.8769H85.7469V202.254V211.184H94.6769H271.347V221.704Z" fill="url(#paint33_linear_1628_10908)"/>
<path d="M83.0091 239.616V243.386H67.2891V223.086H82.6291V226.856H71.9591V231.266H81.3891V234.916H71.9591V239.616H83.0091Z" fill="url(#paint34_linear_1628_10908)"/>
<path d="M105.979 223.086L97.1891 243.386H92.5491L83.7891 223.086H88.8591L95.0391 237.586L101.309 223.086H105.979Z" fill="url(#paint35_linear_1628_10908)"/>
<path d="M123.4 239.616V243.386H107.68V223.086H123.02V226.856H112.35V231.266H121.78V234.916H112.35V239.616H123.4Z" fill="url(#paint36_linear_1628_10908)"/>
<path d="M140.081 243.386L136.161 237.736H131.841V243.386H127.141V223.086H135.931C141.351 223.086 144.751 225.896 144.751 230.456C144.751 233.506 143.211 235.736 140.571 236.866L145.121 243.396H140.071L140.081 243.386ZM135.671 226.906H131.841V233.986H135.671C138.541 233.986 139.991 232.656 139.991 230.446C139.991 228.236 138.541 226.906 135.671 226.906Z" fill="url(#paint37_linear_1628_10908)"/>
<path d="M157.919 236.196V243.386H153.219V236.136L145.359 223.086H150.349L155.769 232.106L161.189 223.086H165.799L157.909 236.196H157.919Z" fill="url(#paint38_linear_1628_10908)"/>
<path d="M194.62 223.086V243.386H189.92V235.066H180.7V243.386H176V223.086H180.7V231.086H189.92V223.086H194.62Z" fill="url(#paint39_linear_1628_10908)"/>
<path d="M198.172 233.234C198.172 227.204 202.872 222.734 209.282 222.734C215.692 222.734 220.392 227.174 220.392 233.234C220.392 239.294 215.662 243.734 209.282 243.734C202.902 243.734 198.172 239.264 198.172 233.234ZM215.632 233.234C215.632 229.374 212.902 226.734 209.282 226.734C205.662 226.734 202.932 229.374 202.932 233.234C202.932 237.094 205.662 239.734 209.282 239.734C212.902 239.734 215.632 237.094 215.632 233.234Z" fill="url(#paint40_linear_1628_10908)"/>
<path d="M242.41 243.386L242.38 231.206L236.41 241.246H234.29L228.34 231.466V243.386H223.93V223.086H227.82L235.42 235.706L242.9 223.086H246.76L246.82 243.386H242.41Z" fill="url(#paint41_linear_1628_10908)"/>
<path d="M267.361 239.616V243.386H251.641V223.086H266.981V226.856H256.311V231.266H265.741V234.916H256.311V239.616H267.361Z" fill="url(#paint42_linear_1628_10908)"/>
<path d="M62.6875 257.84C62.6875 254.52 65.2175 252.07 68.6375 252.07C70.2875 252.07 71.7775 252.62 72.7875 253.73L72.0275 254.49C71.1075 253.55 69.9675 253.14 68.6675 253.14C65.9275 253.14 63.8775 255.15 63.8775 257.84C63.8775 260.53 65.9375 262.54 68.6675 262.54C69.9675 262.54 71.0975 262.14 72.0275 261.18L72.7875 261.94C71.7775 263.04 70.2875 263.61 68.6275 263.61C65.2275 263.61 62.6975 261.16 62.6975 257.84H62.6875Z" fill="url(#paint43_linear_1628_10908)"/>
<path d="M73.8867 259.252C73.8867 256.722 75.7367 254.922 78.2267 254.922C80.7167 254.922 82.5567 256.722 82.5567 259.252C82.5567 261.782 80.7267 263.592 78.2267 263.592C75.7267 263.592 73.8867 261.772 73.8867 259.252ZM81.3867 259.252C81.3867 257.252 80.0367 255.932 78.2267 255.932C76.4167 255.932 75.0467 257.262 75.0467 259.252C75.0467 261.242 76.4067 262.572 78.2267 262.572C80.0467 262.572 81.3867 261.242 81.3867 259.252Z" fill="url(#paint44_linear_1628_10908)"/>
<path d="M92.7462 258.572V263.512H91.5962V258.682C91.5962 256.882 90.6562 255.962 89.0362 255.962C87.2062 255.962 86.0562 257.102 86.0562 259.042V263.512H84.9062V254.992H86.0062V256.562C86.6262 255.522 87.7662 254.922 89.2462 254.922C91.3162 254.922 92.7462 256.122 92.7462 258.562V258.572Z" fill="url(#paint45_linear_1628_10908)"/>
<path d="M103.738 258.572V263.512H102.588V258.682C102.588 256.882 101.648 255.962 100.028 255.962C98.1984 255.962 97.0484 257.102 97.0484 259.042V263.512H95.8984V254.992H96.9984V256.562C97.6184 255.522 98.7584 254.922 100.238 254.922C102.308 254.922 103.738 256.122 103.738 258.562V258.572Z" fill="url(#paint46_linear_1628_10908)"/>
<path d="M114.327 259.612H107.197C107.327 261.392 108.687 262.582 110.547 262.582C111.587 262.582 112.507 262.212 113.157 261.462L113.807 262.202C113.047 263.112 111.867 263.592 110.517 263.592C107.857 263.592 106.047 261.772 106.047 259.252C106.047 256.732 107.817 254.922 110.207 254.922C112.597 254.922 114.337 256.692 114.337 259.252C114.337 259.352 114.317 259.472 114.317 259.602L114.327 259.612ZM107.197 258.752H113.237C113.087 257.082 111.877 255.912 110.207 255.912C108.537 255.912 107.337 257.082 107.197 258.752Z" fill="url(#paint47_linear_1628_10908)"/>
<path d="M115.848 259.252C115.848 256.702 117.698 254.922 120.238 254.922C121.678 254.922 122.898 255.492 123.568 256.612L122.708 257.192C122.128 256.332 121.218 255.932 120.228 255.932C118.368 255.932 116.998 257.262 116.998 259.252C116.998 261.242 118.358 262.572 120.228 262.572C121.218 262.572 122.118 262.182 122.708 261.322L123.568 261.902C122.888 263.002 121.678 263.592 120.238 263.592C117.698 263.592 115.848 261.792 115.848 259.252Z" fill="url(#paint48_linear_1628_10908)"/>
<path d="M130.418 263.001C129.958 263.401 129.278 263.601 128.618 263.601C127.018 263.601 126.118 262.691 126.118 261.121V255.971H124.598V255.001H126.118V253.141H127.268V255.001H129.858V255.971H127.268V261.061C127.268 262.061 127.788 262.611 128.748 262.611C129.218 262.611 129.688 262.461 130.008 262.171L130.408 263.001H130.418Z" fill="url(#paint49_linear_1628_10908)"/>
<path d="M132.258 252.302C132.258 251.862 132.628 251.492 133.098 251.492C133.568 251.492 133.938 251.852 133.938 252.282C133.938 252.752 133.578 253.122 133.098 253.122C132.618 253.122 132.258 252.752 132.258 252.292V252.302ZM132.518 254.992H133.668V263.512H132.518V254.992Z" fill="url(#paint50_linear_1628_10908)"/>
<path d="M144.715 258.572V263.512H143.565V258.682C143.565 256.882 142.625 255.962 141.005 255.962C139.175 255.962 138.025 257.102 138.025 259.042V263.512H136.875V254.992H137.975V256.562C138.595 255.522 139.735 254.922 141.215 254.922C143.285 254.922 144.715 256.122 144.715 258.562V258.572Z" fill="url(#paint51_linear_1628_10908)"/>
<path d="M155.789 254.995V262.485C155.789 265.415 154.349 266.745 151.529 266.745C149.979 266.745 148.449 266.275 147.559 265.435L148.139 264.565C148.949 265.295 150.179 265.735 151.499 265.735C153.659 265.735 154.639 264.745 154.639 262.645V261.565C153.929 262.645 152.709 263.215 151.319 263.215C148.889 263.215 147.039 261.515 147.039 259.065C147.039 256.615 148.889 254.945 151.319 254.945C152.749 254.945 153.979 255.525 154.689 256.645V255.005H155.789V254.995ZM154.669 259.045C154.669 257.195 153.309 255.935 151.429 255.935C149.549 255.935 148.199 257.195 148.199 259.045C148.199 260.895 149.549 262.165 151.429 262.165C153.309 262.165 154.669 260.885 154.669 259.045Z" fill="url(#paint52_linear_1628_10908)"/>
<path d="M171.629 263.694L170.059 262.074C169.099 263.094 167.809 263.614 166.269 263.614C164.049 263.614 162.469 262.444 162.469 260.724C162.469 259.384 163.249 258.394 165.319 257.194C164.219 256.064 163.899 255.384 163.899 254.504C163.899 253.064 165.019 252.094 166.769 252.094C168.369 252.094 169.409 252.934 169.409 254.344C169.409 255.474 168.729 256.274 166.879 257.344L169.989 260.554C170.329 259.954 170.589 259.224 170.749 258.364L171.689 258.654C171.479 259.674 171.139 260.554 170.689 261.264L172.309 262.934L171.649 263.694H171.629ZM169.379 261.374L165.959 257.854C164.139 258.894 163.589 259.604 163.589 260.604C163.589 261.834 164.689 262.644 166.329 262.644C167.559 262.644 168.599 262.224 169.369 261.364L169.379 261.374ZM164.959 254.494C164.959 255.154 165.199 255.624 166.239 256.684C167.879 255.744 168.409 255.174 168.409 254.364C168.409 253.554 167.809 252.954 166.749 252.954C165.619 252.954 164.949 253.584 164.949 254.494H164.959Z" fill="url(#paint53_linear_1628_10908)"/>
<path d="M177.527 262.146L177.997 261.226C178.807 262.026 180.247 262.606 181.737 262.606C183.857 262.606 184.787 261.716 184.787 260.596C184.787 257.486 177.807 259.396 177.807 255.196C177.807 253.526 179.107 252.086 181.987 252.086C183.267 252.086 184.597 252.456 185.507 253.096L185.107 254.056C184.137 253.426 182.997 253.116 181.997 253.116C179.927 253.116 178.997 254.036 178.997 255.176C178.997 258.286 185.977 256.406 185.977 260.536C185.977 262.206 184.647 263.636 181.747 263.636C180.047 263.636 178.377 263.036 177.537 262.156L177.527 262.146Z" fill="url(#paint54_linear_1628_10908)"/>
<path d="M188.086 252.302C188.086 251.862 188.456 251.492 188.926 251.492C189.396 251.492 189.766 251.852 189.766 252.282C189.766 252.752 189.406 253.122 188.926 253.122C188.446 253.122 188.086 252.752 188.086 252.292V252.302ZM188.346 254.992H189.496V263.512H188.346V254.992Z" fill="url(#paint55_linear_1628_10908)"/>
<path d="M206.767 258.577V263.517H205.617V258.688C205.617 256.888 204.707 255.967 203.167 255.967C201.417 255.967 200.317 257.107 200.317 259.047V263.517H199.167V258.688C199.167 256.888 198.257 255.967 196.707 255.967C194.977 255.967 193.857 257.107 193.857 259.047V263.517H192.707V254.997H193.807V256.557C194.407 255.537 195.507 254.938 196.937 254.938C198.367 254.938 199.447 255.537 199.967 256.737C200.587 255.637 201.797 254.938 203.337 254.938C205.407 254.938 206.767 256.137 206.767 258.577Z" fill="url(#paint56_linear_1628_10908)"/>
<path d="M218.558 259.252C218.558 261.842 216.738 263.592 214.308 263.592C212.948 263.592 211.778 263.012 211.068 261.902V266.652H209.918V254.982H211.018V256.672C211.718 255.532 212.898 254.922 214.308 254.922C216.738 254.922 218.558 256.672 218.558 259.252ZM217.408 259.252C217.408 257.272 216.028 255.932 214.228 255.932C212.428 255.932 211.048 257.272 211.048 259.252C211.048 261.232 212.408 262.572 214.228 262.572C216.048 262.572 217.408 261.242 217.408 259.252Z" fill="url(#paint57_linear_1628_10908)"/>
<path d="M220.918 251.492H222.068V263.512H220.918V251.492Z" fill="url(#paint58_linear_1628_10908)"/>
<path d="M225.016 252.302C225.016 251.862 225.386 251.492 225.856 251.492C226.326 251.492 226.696 251.852 226.696 252.282C226.696 252.752 226.336 253.122 225.856 253.122C225.376 253.122 225.016 252.752 225.016 252.292V252.302ZM225.276 254.992H226.426V263.512H225.276V254.992Z" fill="url(#paint59_linear_1628_10908)"/>
<path d="M230.96 253.994V254.994H233.58V255.964H230.99V263.514H229.84V255.964H228.32V254.994H229.84V253.944C229.84 252.424 230.75 251.414 232.42 251.414C233.05 251.414 233.7 251.594 234.12 251.944L233.73 252.804C233.4 252.524 232.95 252.384 232.47 252.384C231.48 252.384 230.96 252.934 230.96 253.984V253.994Z" fill="url(#paint60_linear_1628_10908)"/>
<path d="M242.467 254.989L238.207 264.529C237.497 266.199 236.587 266.729 235.367 266.729C234.567 266.729 233.807 266.469 233.297 265.949L233.827 265.089C234.247 265.509 234.767 265.739 235.387 265.739C236.147 265.739 236.667 265.379 237.147 264.309L237.517 263.479L233.707 254.969H234.907L238.117 262.209L241.327 254.969H242.457L242.467 254.989Z" fill="url(#paint61_linear_1628_10908)"/>
<path d="M243.836 252.302C243.836 251.862 244.206 251.492 244.676 251.492C245.146 251.492 245.516 251.852 245.516 252.282C245.516 252.752 245.156 253.122 244.676 253.122C244.196 253.122 243.836 252.752 243.836 252.292V252.302ZM244.096 254.992H245.246V263.512H244.096V254.992Z" fill="url(#paint62_linear_1628_10908)"/>
<path d="M256.297 258.572V263.512H255.147V258.682C255.147 256.882 254.207 255.962 252.587 255.962C250.757 255.962 249.607 257.102 249.607 259.042V263.512H248.457V254.992H249.557V256.562C250.177 255.522 251.317 254.922 252.797 254.922C254.867 254.922 256.297 256.122 256.297 258.562V258.572Z" fill="url(#paint63_linear_1628_10908)"/>
<path d="M267.359 254.995V262.485C267.359 265.415 265.919 266.745 263.099 266.745C261.549 266.745 260.019 266.275 259.129 265.435L259.709 264.565C260.519 265.295 261.749 265.735 263.069 265.735C265.229 265.735 266.209 264.745 266.209 262.645V261.565C265.499 262.645 264.279 263.215 262.889 263.215C260.459 263.215 258.609 261.515 258.609 259.065C258.609 256.615 260.459 254.945 262.889 254.945C264.319 254.945 265.549 255.525 266.259 256.645V255.005H267.359V254.995ZM266.249 259.045C266.249 257.195 264.889 255.935 263.009 255.935C261.129 255.935 259.779 257.195 259.779 259.045C259.779 260.895 261.129 262.165 263.009 262.165C264.889 262.165 266.249 260.885 266.249 259.045Z" fill="url(#paint64_linear_1628_10908)"/>
<path d="M147.406 104.01L185.426 142.04H196.186L147.406 93.25L135.836 104.82L141.216 110.2L147.406 104.01Z" fill="url(#paint65_linear_1628_10908)"/>
<path d="M133.926 162.781H114.266V198.841H133.926V162.781Z" fill="url(#paint66_linear_1628_10908)"/>
<path d="M271.347 221.704L297.307 206.714L271.347 191.734V202.254H94.6769V162.784V153.864H86.7969L124.097 116.564L125.347 117.804L131.887 124.344L170.327 162.784H183.397L138.427 117.804L131.887 111.274L124.097 103.484L64.7969 162.784H74.0369H77.8769H85.7469V202.254V211.184H94.6769H271.347V221.704Z" fill="url(#paint67_linear_1628_10908)"/>
</g>
<defs>
<linearGradient id="paint0_linear_1628_10908" x1="1.15906" y1="177.466" x2="243.709" y2="360.766" gradientUnits="userSpaceOnUse">
<stop stop-color="#A37A1E"/>
<stop offset="0.17" stop-color="#B58B30"/>
<stop offset="0.31" stop-color="#93712C"/>
<stop offset="0.53" stop-color="#B27C1D"/>
<stop offset="0.74" stop-color="#93773E"/>
<stop offset="0.88" stop-color="#7F5B21"/>
<stop offset="1" stop-color="#A36E11"/>
</linearGradient>
<linearGradient id="paint1_linear_1628_10908" x1="9.99906" y1="165.766" x2="252.549" y2="349.066" gradientUnits="userSpaceOnUse">
<stop stop-color="#A37A1E"/>
<stop offset="0.17" stop-color="#B58B30"/>
<stop offset="0.31" stop-color="#93712C"/>
<stop offset="0.53" stop-color="#B27C1D"/>
<stop offset="0.74" stop-color="#93773E"/>
<stop offset="0.88" stop-color="#7F5B21"/>
<stop offset="1" stop-color="#A36E11"/>
</linearGradient>
<linearGradient id="paint2_linear_1628_10908" x1="15.8397" y1="158.036" x2="258.39" y2="341.336" gradientUnits="userSpaceOnUse">
<stop stop-color="#A37A1E"/>
<stop offset="0.17" stop-color="#B58B30"/>
<stop offset="0.31" stop-color="#93712C"/>
<stop offset="0.53" stop-color="#B27C1D"/>
<stop offset="0.74" stop-color="#93773E"/>
<stop offset="0.88" stop-color="#7F5B21"/>
<stop offset="1" stop-color="#A36E11"/>
</linearGradient>
<linearGradient id="paint3_linear_1628_10908" x1="22.4307" y1="149.326" x2="264.981" y2="332.626" gradientUnits="userSpaceOnUse">
<stop stop-color="#A37A1E"/>
<stop offset="0.17" stop-color="#B58B30"/>
<stop offset="0.31" stop-color="#93712C"/>
<stop offset="0.53" stop-color="#B27C1D"/>
<stop offset="0.74" stop-color="#93773E"/>
<stop offset="0.88" stop-color="#7F5B21"/>
<stop offset="1" stop-color="#A36E11"/>
</linearGradient>
<linearGradient id="paint4_linear_1628_10908" x1="31.8994" y1="136.786" x2="274.449" y2="320.086" gradientUnits="userSpaceOnUse">
<stop stop-color="#A37A1E"/>
<stop offset="0.17" stop-color="#B58B30"/>
<stop offset="0.31" stop-color="#93712C"/>
<stop offset="0.53" stop-color="#B27C1D"/>
<stop offset="0.74" stop-color="#93773E"/>
<stop offset="0.88" stop-color="#7F5B21"/>
<stop offset="1" stop-color="#A36E11"/>
</linearGradient>
<linearGradient id="paint5_linear_1628_10908" x1="41.28" y1="124.376" x2="283.83" y2="307.686" gradientUnits="userSpaceOnUse">
<stop stop-color="#A37A1E"/>
<stop offset="0.17" stop-color="#B58B30"/>
<stop offset="0.31" stop-color="#93712C"/>
<stop offset="0.53" stop-color="#B27C1D"/>
<stop offset="0.74" stop-color="#93773E"/>
<stop offset="0.88" stop-color="#7F5B21"/>
<stop offset="1" stop-color="#A36E11"/>
</linearGradient>
<linearGradient id="paint6_linear_1628_10908" x1="49.9919" y1="112.854" x2="292.542" y2="296.154" gradientUnits="userSpaceOnUse">
<stop stop-color="#A37A1E"/>
<stop offset="0.17" stop-color="#B58B30"/>
<stop offset="0.31" stop-color="#93712C"/>
<stop offset="0.53" stop-color="#B27C1D"/>
<stop offset="0.74" stop-color="#93773E"/>
<stop offset="0.88" stop-color="#7F5B21"/>
<stop offset="1" stop-color="#A36E11"/>
</linearGradient>
<linearGradient id="paint7_linear_1628_10908" x1="59.4696" y1="100.316" x2="302.01" y2="283.616" gradientUnits="userSpaceOnUse">
<stop stop-color="#A37A1E"/>
<stop offset="0.17" stop-color="#B58B30"/>
<stop offset="0.31" stop-color="#93712C"/>
<stop offset="0.53" stop-color="#B27C1D"/>
<stop offset="0.74" stop-color="#93773E"/>
<stop offset="0.88" stop-color="#7F5B21"/>
<stop offset="1" stop-color="#A36E11"/>
</linearGradient>
<linearGradient id="paint8_linear_1628_10908" x1="68.1808" y1="88.7859" x2="310.731" y2="272.086" gradientUnits="userSpaceOnUse">
<stop stop-color="#A37A1E"/>
<stop offset="0.17" stop-color="#B58B30"/>
<stop offset="0.31" stop-color="#93712C"/>
<stop offset="0.53" stop-color="#B27C1D"/>
<stop offset="0.74" stop-color="#93773E"/>
<stop offset="0.88" stop-color="#7F5B21"/>
<stop offset="1" stop-color="#A36E11"/>
</linearGradient>
<linearGradient id="paint9_linear_1628_10908" x1="-12.9925" y1="196.18" x2="229.557" y2="379.48" gradientUnits="userSpaceOnUse">
<stop stop-color="#A37A1E"/>
<stop offset="0.17" stop-color="#B58B30"/>
<stop offset="0.31" stop-color="#93712C"/>
<stop offset="0.53" stop-color="#B27C1D"/>
<stop offset="0.74" stop-color="#93773E"/>
<stop offset="0.88" stop-color="#7F5B21"/>
<stop offset="1" stop-color="#A36E11"/>
</linearGradient>
<linearGradient id="paint10_linear_1628_10908" x1="-10.1733" y1="192.452" x2="232.377" y2="375.752" gradientUnits="userSpaceOnUse">
<stop stop-color="#A37A1E"/>
<stop offset="0.17" stop-color="#B58B30"/>
<stop offset="0.31" stop-color="#93712C"/>
<stop offset="0.53" stop-color="#B27C1D"/>
<stop offset="0.74" stop-color="#93773E"/>
<stop offset="0.88" stop-color="#7F5B21"/>
<stop offset="1" stop-color="#A36E11"/>
</linearGradient>
<linearGradient id="paint11_linear_1628_10908" x1="-6.6837" y1="187.842" x2="235.866" y2="371.142" gradientUnits="userSpaceOnUse">
<stop stop-color="#A37A1E"/>
<stop offset="0.17" stop-color="#B58B30"/>
<stop offset="0.31" stop-color="#93712C"/>
<stop offset="0.53" stop-color="#B27C1D"/>
<stop offset="0.74" stop-color="#93773E"/>
<stop offset="0.88" stop-color="#7F5B21"/>
<stop offset="1" stop-color="#A36E11"/>
</linearGradient>
<linearGradient id="paint12_linear_1628_10908" x1="-2.69152" y1="182.562" x2="239.858" y2="365.862" gradientUnits="userSpaceOnUse">
<stop stop-color="#A37A1E"/>
<stop offset="0.17" stop-color="#B58B30"/>
<stop offset="0.31" stop-color="#93712C"/>
<stop offset="0.53" stop-color="#B27C1D"/>
<stop offset="0.74" stop-color="#93773E"/>
<stop offset="0.88" stop-color="#7F5B21"/>
<stop offset="1" stop-color="#A36E11"/>
</linearGradient>
<linearGradient id="paint13_linear_1628_10908" x1="1.46696" y1="177.052" x2="244.017" y2="360.351" gradientUnits="userSpaceOnUse">
<stop stop-color="#A37A1E"/>
<stop offset="0.17" stop-color="#B58B30"/>
<stop offset="0.31" stop-color="#93712C"/>
<stop offset="0.53" stop-color="#B27C1D"/>
<stop offset="0.74" stop-color="#93773E"/>
<stop offset="0.88" stop-color="#7F5B21"/>
<stop offset="1" stop-color="#A36E11"/>
</linearGradient>
<linearGradient id="paint14_linear_1628_10908" x1="5.07764" y1="172.272" x2="247.628" y2="355.572" gradientUnits="userSpaceOnUse">
<stop stop-color="#A37A1E"/>
<stop offset="0.17" stop-color="#B58B30"/>
<stop offset="0.31" stop-color="#93712C"/>
<stop offset="0.53" stop-color="#B27C1D"/>
<stop offset="0.74" stop-color="#93773E"/>
<stop offset="0.88" stop-color="#7F5B21"/>
<stop offset="1" stop-color="#A36E11"/>
</linearGradient>
<linearGradient id="paint15_linear_1628_10908" x1="8.16766" y1="168.181" x2="250.718" y2="351.481" gradientUnits="userSpaceOnUse">
<stop stop-color="#A37A1E"/>
<stop offset="0.17" stop-color="#B58B30"/>
<stop offset="0.31" stop-color="#93712C"/>
<stop offset="0.53" stop-color="#B27C1D"/>
<stop offset="0.74" stop-color="#93773E"/>
<stop offset="0.88" stop-color="#7F5B21"/>
<stop offset="1" stop-color="#A36E11"/>
</linearGradient>
<linearGradient id="paint16_linear_1628_10908" x1="10.5672" y1="165.012" x2="253.117" y2="348.313" gradientUnits="userSpaceOnUse">
<stop stop-color="#A37A1E"/>
<stop offset="0.17" stop-color="#B58B30"/>
<stop offset="0.31" stop-color="#93712C"/>
<stop offset="0.53" stop-color="#B27C1D"/>
<stop offset="0.74" stop-color="#93773E"/>
<stop offset="0.88" stop-color="#7F5B21"/>
<stop offset="1" stop-color="#A36E11"/>
</linearGradient>
<linearGradient id="paint17_linear_1628_10908" x1="12.2051" y1="162.842" x2="254.755" y2="346.142" gradientUnits="userSpaceOnUse">
<stop stop-color="#A37A1E"/>
<stop offset="0.17" stop-color="#B58B30"/>
<stop offset="0.31" stop-color="#93712C"/>
<stop offset="0.53" stop-color="#B27C1D"/>
<stop offset="0.74" stop-color="#93773E"/>
<stop offset="0.88" stop-color="#7F5B21"/>
<stop offset="1" stop-color="#A36E11"/>
</linearGradient>
<linearGradient id="paint18_linear_1628_10908" x1="16.0591" y1="157.745" x2="258.609" y2="341.045" gradientUnits="userSpaceOnUse">
<stop stop-color="#A37A1E"/>
<stop offset="0.17" stop-color="#B58B30"/>
<stop offset="0.31" stop-color="#93712C"/>
<stop offset="0.53" stop-color="#B27C1D"/>
<stop offset="0.74" stop-color="#93773E"/>
<stop offset="0.88" stop-color="#7F5B21"/>
<stop offset="1" stop-color="#A36E11"/>
</linearGradient>
<linearGradient id="paint19_linear_1628_10908" x1="22.4988" y1="149.224" x2="265.049" y2="332.524" gradientUnits="userSpaceOnUse">
<stop stop-color="#A37A1E"/>
<stop offset="0.17" stop-color="#B58B30"/>
<stop offset="0.31" stop-color="#93712C"/>
<stop offset="0.53" stop-color="#B27C1D"/>
<stop offset="0.74" stop-color="#93773E"/>
<stop offset="0.88" stop-color="#7F5B21"/>
<stop offset="1" stop-color="#A36E11"/>
</linearGradient>
<linearGradient id="paint20_linear_1628_10908" x1="28.1574" y1="141.736" x2="270.708" y2="325.036" gradientUnits="userSpaceOnUse">
<stop stop-color="#A37A1E"/>
<stop offset="0.17" stop-color="#B58B30"/>
<stop offset="0.31" stop-color="#93712C"/>
<stop offset="0.53" stop-color="#B27C1D"/>
<stop offset="0.74" stop-color="#93773E"/>
<stop offset="0.88" stop-color="#7F5B21"/>
<stop offset="1" stop-color="#A36E11"/>
</linearGradient>
<linearGradient id="paint21_linear_1628_10908" x1="30.8552" y1="138.152" x2="273.405" y2="321.453" gradientUnits="userSpaceOnUse">
<stop stop-color="#A37A1E"/>
<stop offset="0.17" stop-color="#B58B30"/>
<stop offset="0.31" stop-color="#93712C"/>
<stop offset="0.53" stop-color="#B27C1D"/>
<stop offset="0.74" stop-color="#93773E"/>
<stop offset="0.88" stop-color="#7F5B21"/>
<stop offset="1" stop-color="#A36E11"/>
</linearGradient>
<linearGradient id="paint22_linear_1628_10908" x1="33.6371" y1="134.488" x2="276.187" y2="317.788" gradientUnits="userSpaceOnUse">
<stop stop-color="#A37A1E"/>
<stop offset="0.17" stop-color="#B58B30"/>
<stop offset="0.31" stop-color="#93712C"/>
<stop offset="0.53" stop-color="#B27C1D"/>
<stop offset="0.74" stop-color="#93773E"/>
<stop offset="0.88" stop-color="#7F5B21"/>
<stop offset="1" stop-color="#A36E11"/>
</linearGradient>
<linearGradient id="paint23_linear_1628_10908" x1="38.038" y1="128.662" x2="280.588" y2="311.962" gradientUnits="userSpaceOnUse">
<stop stop-color="#A37A1E"/>
<stop offset="0.17" stop-color="#B58B30"/>
<stop offset="0.31" stop-color="#93712C"/>
<stop offset="0.53" stop-color="#B27C1D"/>
<stop offset="0.74" stop-color="#93773E"/>
<stop offset="0.88" stop-color="#7F5B21"/>
<stop offset="1" stop-color="#A36E11"/>
</linearGradient>
<linearGradient id="paint24_linear_1628_10908" x1="42.7466" y1="122.422" x2="285.297" y2="305.724" gradientUnits="userSpaceOnUse">
<stop stop-color="#A37A1E"/>
<stop offset="0.17" stop-color="#B58B30"/>
<stop offset="0.31" stop-color="#93712C"/>
<stop offset="0.53" stop-color="#B27C1D"/>
<stop offset="0.74" stop-color="#93773E"/>
<stop offset="0.88" stop-color="#7F5B21"/>
<stop offset="1" stop-color="#A36E11"/>
</linearGradient>
<linearGradient id="paint25_linear_1628_10908" x1="44.2864" y1="120.392" x2="286.836" y2="303.691" gradientUnits="userSpaceOnUse">
<stop stop-color="#A37A1E"/>
<stop offset="0.17" stop-color="#B58B30"/>
<stop offset="0.31" stop-color="#93712C"/>
<stop offset="0.53" stop-color="#B27C1D"/>
<stop offset="0.74" stop-color="#93773E"/>
<stop offset="0.88" stop-color="#7F5B21"/>
<stop offset="1" stop-color="#A36E11"/>
</linearGradient>
<linearGradient id="paint26_linear_1628_10908" x1="46.4607" y1="117.524" x2="289.01" y2="300.824" gradientUnits="userSpaceOnUse">
<stop stop-color="#A37A1E"/>
<stop offset="0.17" stop-color="#B58B30"/>
<stop offset="0.31" stop-color="#93712C"/>
<stop offset="0.53" stop-color="#B27C1D"/>
<stop offset="0.74" stop-color="#93773E"/>
<stop offset="0.88" stop-color="#7F5B21"/>
<stop offset="1" stop-color="#A36E11"/>
</linearGradient>
<linearGradient id="paint27_linear_1628_10908" x1="47.2669" y1="116.439" x2="289.817" y2="299.739" gradientUnits="userSpaceOnUse">
<stop stop-color="#A37A1E"/>
<stop offset="0.17" stop-color="#B58B30"/>
<stop offset="0.31" stop-color="#93712C"/>
<stop offset="0.53" stop-color="#B27C1D"/>
<stop offset="0.74" stop-color="#93773E"/>
<stop offset="0.88" stop-color="#7F5B21"/>
<stop offset="1" stop-color="#A36E11"/>
</linearGradient>
<linearGradient id="paint28_linear_1628_10908" x1="51.125" y1="111.342" x2="293.675" y2="294.643" gradientUnits="userSpaceOnUse">
<stop stop-color="#A37A1E"/>
<stop offset="0.17" stop-color="#B58B30"/>
<stop offset="0.31" stop-color="#93712C"/>
<stop offset="0.53" stop-color="#B27C1D"/>
<stop offset="0.74" stop-color="#93773E"/>
<stop offset="0.88" stop-color="#7F5B21"/>
<stop offset="1" stop-color="#A36E11"/>
</linearGradient>
<linearGradient id="paint29_linear_1628_10908" x1="52.7675" y1="109.172" x2="295.317" y2="292.471" gradientUnits="userSpaceOnUse">
<stop stop-color="#A37A1E"/>
<stop offset="0.17" stop-color="#B58B30"/>
<stop offset="0.31" stop-color="#93712C"/>
<stop offset="0.53" stop-color="#B27C1D"/>
<stop offset="0.74" stop-color="#93773E"/>
<stop offset="0.88" stop-color="#7F5B21"/>
<stop offset="1" stop-color="#A36E11"/>
</linearGradient>
<linearGradient id="paint30_linear_1628_10908" x1="56.6194" y1="104.075" x2="299.169" y2="287.375" gradientUnits="userSpaceOnUse">
<stop stop-color="#A37A1E"/>
<stop offset="0.17" stop-color="#B58B30"/>
<stop offset="0.31" stop-color="#93712C"/>
<stop offset="0.53" stop-color="#B27C1D"/>
<stop offset="0.74" stop-color="#93773E"/>
<stop offset="0.88" stop-color="#7F5B21"/>
<stop offset="1" stop-color="#A36E11"/>
</linearGradient>
<linearGradient id="paint31_linear_1628_10908" x1="89.6259" y1="60.4" x2="332.176" y2="243.7" gradientUnits="userSpaceOnUse">
<stop stop-color="#A37A1E"/>
<stop offset="0.17" stop-color="#B58B30"/>
<stop offset="0.31" stop-color="#93712C"/>
<stop offset="0.53" stop-color="#B27C1D"/>
<stop offset="0.74" stop-color="#93773E"/>
<stop offset="0.88" stop-color="#7F5B21"/>
<stop offset="1" stop-color="#A36E11"/>
</linearGradient>
<linearGradient id="paint32_linear_1628_10908" x1="44.2356" y1="120.461" x2="286.786" y2="303.761" gradientUnits="userSpaceOnUse">
<stop stop-color="#A37A1E"/>
<stop offset="0.17" stop-color="#B58B30"/>
<stop offset="0.31" stop-color="#93712C"/>
<stop offset="0.53" stop-color="#B27C1D"/>
<stop offset="0.74" stop-color="#93773E"/>
<stop offset="0.88" stop-color="#7F5B21"/>
<stop offset="1" stop-color="#A36E11"/>
</linearGradient>
<linearGradient id="paint33_linear_1628_10908" x1="55.2169" y1="105.934" x2="297.767" y2="289.234" gradientUnits="userSpaceOnUse">
<stop stop-color="#A37A1E"/>
<stop offset="0.17" stop-color="#B58B30"/>
<stop offset="0.31" stop-color="#93712C"/>
<stop offset="0.53" stop-color="#B27C1D"/>
<stop offset="0.74" stop-color="#93773E"/>
<stop offset="0.88" stop-color="#7F5B21"/>
<stop offset="1" stop-color="#A36E11"/>
</linearGradient>
<linearGradient id="paint34_linear_1628_10908" x1="1.15906" y1="177.466" x2="243.709" y2="360.766" gradientUnits="userSpaceOnUse">
<stop stop-color="#A37A1E"/>
<stop offset="0.17" stop-color="#B58B30"/>
<stop offset="0.31" stop-color="#93712C"/>
<stop offset="0.53" stop-color="#B27C1D"/>
<stop offset="0.74" stop-color="#93773E"/>
<stop offset="0.88" stop-color="#7F5B21"/>
<stop offset="1" stop-color="#A36E11"/>
</linearGradient>
<linearGradient id="paint35_linear_1628_10908" x1="9.99906" y1="165.766" x2="252.549" y2="349.066" gradientUnits="userSpaceOnUse">
<stop stop-color="#A37A1E"/>
<stop offset="0.17" stop-color="#B58B30"/>
<stop offset="0.31" stop-color="#93712C"/>
<stop offset="0.53" stop-color="#B27C1D"/>
<stop offset="0.74" stop-color="#93773E"/>
<stop offset="0.88" stop-color="#7F5B21"/>
<stop offset="1" stop-color="#A36E11"/>
</linearGradient>
<linearGradient id="paint36_linear_1628_10908" x1="15.8397" y1="158.036" x2="258.39" y2="341.336" gradientUnits="userSpaceOnUse">
<stop stop-color="#A37A1E"/>
<stop offset="0.17" stop-color="#B58B30"/>
<stop offset="0.31" stop-color="#93712C"/>
<stop offset="0.53" stop-color="#B27C1D"/>
<stop offset="0.74" stop-color="#93773E"/>
<stop offset="0.88" stop-color="#7F5B21"/>
<stop offset="1" stop-color="#A36E11"/>
</linearGradient>
<linearGradient id="paint37_linear_1628_10908" x1="22.4307" y1="149.326" x2="264.981" y2="332.626" gradientUnits="userSpaceOnUse">
<stop stop-color="#A37A1E"/>
<stop offset="0.17" stop-color="#B58B30"/>
<stop offset="0.31" stop-color="#93712C"/>
<stop offset="0.53" stop-color="#B27C1D"/>
<stop offset="0.74" stop-color="#93773E"/>
<stop offset="0.88" stop-color="#7F5B21"/>
<stop offset="1" stop-color="#A36E11"/>
</linearGradient>
<linearGradient id="paint38_linear_1628_10908" x1="31.8994" y1="136.786" x2="274.449" y2="320.086" gradientUnits="userSpaceOnUse">
<stop stop-color="#A37A1E"/>
<stop offset="0.17" stop-color="#B58B30"/>
<stop offset="0.31" stop-color="#93712C"/>
<stop offset="0.53" stop-color="#B27C1D"/>
<stop offset="0.74" stop-color="#93773E"/>
<stop offset="0.88" stop-color="#7F5B21"/>
<stop offset="1" stop-color="#A36E11"/>
</linearGradient>
<linearGradient id="paint39_linear_1628_10908" x1="41.28" y1="124.376" x2="283.83" y2="307.686" gradientUnits="userSpaceOnUse">
<stop stop-color="#A37A1E"/>
<stop offset="0.17" stop-color="#B58B30"/>
<stop offset="0.31" stop-color="#93712C"/>
<stop offset="0.53" stop-color="#B27C1D"/>
<stop offset="0.74" stop-color="#93773E"/>
<stop offset="0.88" stop-color="#7F5B21"/>
<stop offset="1" stop-color="#A36E11"/>
</linearGradient>
<linearGradient id="paint40_linear_1628_10908" x1="49.9919" y1="112.854" x2="292.542" y2="296.154" gradientUnits="userSpaceOnUse">
<stop stop-color="#A37A1E"/>
<stop offset="0.17" stop-color="#B58B30"/>
<stop offset="0.31" stop-color="#93712C"/>
<stop offset="0.53" stop-color="#B27C1D"/>
<stop offset="0.74" stop-color="#93773E"/>
<stop offset="0.88" stop-color="#7F5B21"/>
<stop offset="1" stop-color="#A36E11"/>
</linearGradient>
<linearGradient id="paint41_linear_1628_10908" x1="59.4696" y1="100.316" x2="302.01" y2="283.616" gradientUnits="userSpaceOnUse">
<stop stop-color="#A37A1E"/>
<stop offset="0.17" stop-color="#B58B30"/>
<stop offset="0.31" stop-color="#93712C"/>
<stop offset="0.53" stop-color="#B27C1D"/>
<stop offset="0.74" stop-color="#93773E"/>
<stop offset="0.88" stop-color="#7F5B21"/>
<stop offset="1" stop-color="#A36E11"/>
</linearGradient>
<linearGradient id="paint42_linear_1628_10908" x1="68.1808" y1="88.7859" x2="310.731" y2="272.086" gradientUnits="userSpaceOnUse">
<stop stop-color="#A37A1E"/>
<stop offset="0.17" stop-color="#B58B30"/>
<stop offset="0.31" stop-color="#93712C"/>
<stop offset="0.53" stop-color="#B27C1D"/>
<stop offset="0.74" stop-color="#93773E"/>
<stop offset="0.88" stop-color="#7F5B21"/>
<stop offset="1" stop-color="#A36E11"/>
</linearGradient>
<linearGradient id="paint43_linear_1628_10908" x1="-12.9925" y1="196.18" x2="229.557" y2="379.48" gradientUnits="userSpaceOnUse">
<stop stop-color="#A37A1E"/>
<stop offset="0.17" stop-color="#B58B30"/>
<stop offset="0.31" stop-color="#93712C"/>
<stop offset="0.53" stop-color="#B27C1D"/>
<stop offset="0.74" stop-color="#93773E"/>
<stop offset="0.88" stop-color="#7F5B21"/>
<stop offset="1" stop-color="#A36E11"/>
</linearGradient>
<linearGradient id="paint44_linear_1628_10908" x1="-10.1733" y1="192.452" x2="232.377" y2="375.752" gradientUnits="userSpaceOnUse">
<stop stop-color="#A37A1E"/>
<stop offset="0.17" stop-color="#B58B30"/>
<stop offset="0.31" stop-color="#93712C"/>
<stop offset="0.53" stop-color="#B27C1D"/>
<stop offset="0.74" stop-color="#93773E"/>
<stop offset="0.88" stop-color="#7F5B21"/>
<stop offset="1" stop-color="#A36E11"/>
</linearGradient>
<linearGradient id="paint45_linear_1628_10908" x1="-6.6837" y1="187.842" x2="235.866" y2="371.142" gradientUnits="userSpaceOnUse">
<stop stop-color="#A37A1E"/>
<stop offset="0.17" stop-color="#B58B30"/>
<stop offset="0.31" stop-color="#93712C"/>
<stop offset="0.53" stop-color="#B27C1D"/>
<stop offset="0.74" stop-color="#93773E"/>
<stop offset="0.88" stop-color="#7F5B21"/>
<stop offset="1" stop-color="#A36E11"/>
</linearGradient>
<linearGradient id="paint46_linear_1628_10908" x1="-2.69152" y1="182.562" x2="239.858" y2="365.862" gradientUnits="userSpaceOnUse">
<stop stop-color="#A37A1E"/>
<stop offset="0.17" stop-color="#B58B30"/>
<stop offset="0.31" stop-color="#93712C"/>
<stop offset="0.53" stop-color="#B27C1D"/>
<stop offset="0.74" stop-color="#93773E"/>
<stop offset="0.88" stop-color="#7F5B21"/>
<stop offset="1" stop-color="#A36E11"/>
</linearGradient>
<linearGradient id="paint47_linear_1628_10908" x1="1.46696" y1="177.052" x2="244.017" y2="360.351" gradientUnits="userSpaceOnUse">
<stop stop-color="#A37A1E"/>
<stop offset="0.17" stop-color="#B58B30"/>
<stop offset="0.31" stop-color="#93712C"/>
<stop offset="0.53" stop-color="#B27C1D"/>
<stop offset="0.74" stop-color="#93773E"/>
<stop offset="0.88" stop-color="#7F5B21"/>
<stop offset="1" stop-color="#A36E11"/>
</linearGradient>
<linearGradient id="paint48_linear_1628_10908" x1="5.07764" y1="172.272" x2="247.628" y2="355.572" gradientUnits="userSpaceOnUse">
<stop stop-color="#A37A1E"/>
<stop offset="0.17" stop-color="#B58B30"/>
<stop offset="0.31" stop-color="#93712C"/>
<stop offset="0.53" stop-color="#B27C1D"/>
<stop offset="0.74" stop-color="#93773E"/>
<stop offset="0.88" stop-color="#7F5B21"/>
<stop offset="1" stop-color="#A36E11"/>
</linearGradient>
<linearGradient id="paint49_linear_1628_10908" x1="8.16766" y1="168.181" x2="250.718" y2="351.481" gradientUnits="userSpaceOnUse">
<stop stop-color="#A37A1E"/>
<stop offset="0.17" stop-color="#B58B30"/>
<stop offset="0.31" stop-color="#93712C"/>
<stop offset="0.53" stop-color="#B27C1D"/>
<stop offset="0.74" stop-color="#93773E"/>
<stop offset="0.88" stop-color="#7F5B21"/>
<stop offset="1" stop-color="#A36E11"/>
</linearGradient>
<linearGradient id="paint50_linear_1628_10908" x1="10.5672" y1="165.012" x2="253.117" y2="348.313" gradientUnits="userSpaceOnUse">
<stop stop-color="#A37A1E"/>
<stop offset="0.17" stop-color="#B58B30"/>
<stop offset="0.31" stop-color="#93712C"/>
<stop offset="0.53" stop-color="#B27C1D"/>
<stop offset="0.74" stop-color="#93773E"/>
<stop offset="0.88" stop-color="#7F5B21"/>
<stop offset="1" stop-color="#A36E11"/>
</linearGradient>
<linearGradient id="paint51_linear_1628_10908" x1="12.2051" y1="162.842" x2="254.755" y2="346.142" gradientUnits="userSpaceOnUse">
<stop stop-color="#A37A1E"/>
<stop offset="0.17" stop-color="#B58B30"/>
<stop offset="0.31" stop-color="#93712C"/>
<stop offset="0.53" stop-color="#B27C1D"/>
<stop offset="0.74" stop-color="#93773E"/>
<stop offset="0.88" stop-color="#7F5B21"/>
<stop offset="1" stop-color="#A36E11"/>
</linearGradient>
<linearGradient id="paint52_linear_1628_10908" x1="16.0591" y1="157.745" x2="258.609" y2="341.045" gradientUnits="userSpaceOnUse">
<stop stop-color="#A37A1E"/>
<stop offset="0.17" stop-color="#B58B30"/>
<stop offset="0.31" stop-color="#93712C"/>
<stop offset="0.53" stop-color="#B27C1D"/>
<stop offset="0.74" stop-color="#93773E"/>
<stop offset="0.88" stop-color="#7F5B21"/>
<stop offset="1" stop-color="#A36E11"/>
</linearGradient>
<linearGradient id="paint53_linear_1628_10908" x1="22.4988" y1="149.224" x2="265.049" y2="332.524" gradientUnits="userSpaceOnUse">
<stop stop-color="#A37A1E"/>
<stop offset="0.17" stop-color="#B58B30"/>
<stop offset="0.31" stop-color="#93712C"/>
<stop offset="0.53" stop-color="#B27C1D"/>
<stop offset="0.74" stop-color="#93773E"/>
<stop offset="0.88" stop-color="#7F5B21"/>
<stop offset="1" stop-color="#A36E11"/>
</linearGradient>
<linearGradient id="paint54_linear_1628_10908" x1="28.1574" y1="141.736" x2="270.708" y2="325.036" gradientUnits="userSpaceOnUse">
<stop stop-color="#A37A1E"/>
<stop offset="0.17" stop-color="#B58B30"/>
<stop offset="0.31" stop-color="#93712C"/>
<stop offset="0.53" stop-color="#B27C1D"/>
<stop offset="0.74" stop-color="#93773E"/>
<stop offset="0.88" stop-color="#7F5B21"/>
<stop offset="1" stop-color="#A36E11"/>
</linearGradient>
<linearGradient id="paint55_linear_1628_10908" x1="30.8552" y1="138.152" x2="273.405" y2="321.453" gradientUnits="userSpaceOnUse">
<stop stop-color="#A37A1E"/>
<stop offset="0.17" stop-color="#B58B30"/>
<stop offset="0.31" stop-color="#93712C"/>
<stop offset="0.53" stop-color="#B27C1D"/>
<stop offset="0.74" stop-color="#93773E"/>
<stop offset="0.88" stop-color="#7F5B21"/>
<stop offset="1" stop-color="#A36E11"/>
</linearGradient>
<linearGradient id="paint56_linear_1628_10908" x1="33.6371" y1="134.488" x2="276.187" y2="317.788" gradientUnits="userSpaceOnUse">
<stop stop-color="#A37A1E"/>
<stop offset="0.17" stop-color="#B58B30"/>
<stop offset="0.31" stop-color="#93712C"/>
<stop offset="0.53" stop-color="#B27C1D"/>
<stop offset="0.74" stop-color="#93773E"/>
<stop offset="0.88" stop-color="#7F5B21"/>
<stop offset="1" stop-color="#A36E11"/>
</linearGradient>
<linearGradient id="paint57_linear_1628_10908" x1="38.038" y1="128.662" x2="280.588" y2="311.962" gradientUnits="userSpaceOnUse">
<stop stop-color="#A37A1E"/>
<stop offset="0.17" stop-color="#B58B30"/>
<stop offset="0.31" stop-color="#93712C"/>
<stop offset="0.53" stop-color="#B27C1D"/>
<stop offset="0.74" stop-color="#93773E"/>
<stop offset="0.88" stop-color="#7F5B21"/>
<stop offset="1" stop-color="#A36E11"/>
</linearGradient>
<linearGradient id="paint58_linear_1628_10908" x1="42.7466" y1="122.422" x2="285.297" y2="305.724" gradientUnits="userSpaceOnUse">
<stop stop-color="#A37A1E"/>
<stop offset="0.17" stop-color="#B58B30"/>
<stop offset="0.31" stop-color="#93712C"/>
<stop offset="0.53" stop-color="#B27C1D"/>
<stop offset="0.74" stop-color="#93773E"/>
<stop offset="0.88" stop-color="#7F5B21"/>
<stop offset="1" stop-color="#A36E11"/>
</linearGradient>
<linearGradient id="paint59_linear_1628_10908" x1="44.2864" y1="120.392" x2="286.836" y2="303.691" gradientUnits="userSpaceOnUse">
<stop stop-color="#A37A1E"/>
<stop offset="0.17" stop-color="#B58B30"/>
<stop offset="0.31" stop-color="#93712C"/>
<stop offset="0.53" stop-color="#B27C1D"/>
<stop offset="0.74" stop-color="#93773E"/>
<stop offset="0.88" stop-color="#7F5B21"/>
<stop offset="1" stop-color="#A36E11"/>
</linearGradient>
<linearGradient id="paint60_linear_1628_10908" x1="46.4607" y1="117.524" x2="289.01" y2="300.824" gradientUnits="userSpaceOnUse">
<stop stop-color="#A37A1E"/>
<stop offset="0.17" stop-color="#B58B30"/>
<stop offset="0.31" stop-color="#93712C"/>
<stop offset="0.53" stop-color="#B27C1D"/>
<stop offset="0.74" stop-color="#93773E"/>
<stop offset="0.88" stop-color="#7F5B21"/>
<stop offset="1" stop-color="#A36E11"/>
</linearGradient>
<linearGradient id="paint61_linear_1628_10908" x1="47.2669" y1="116.439" x2="289.817" y2="299.739" gradientUnits="userSpaceOnUse">
<stop stop-color="#A37A1E"/>
<stop offset="0.17" stop-color="#B58B30"/>
<stop offset="0.31" stop-color="#93712C"/>
<stop offset="0.53" stop-color="#B27C1D"/>
<stop offset="0.74" stop-color="#93773E"/>
<stop offset="0.88" stop-color="#7F5B21"/>
<stop offset="1" stop-color="#A36E11"/>
</linearGradient>
<linearGradient id="paint62_linear_1628_10908" x1="51.125" y1="111.342" x2="293.675" y2="294.643" gradientUnits="userSpaceOnUse">
<stop stop-color="#A37A1E"/>
<stop offset="0.17" stop-color="#B58B30"/>
<stop offset="0.31" stop-color="#93712C"/>
<stop offset="0.53" stop-color="#B27C1D"/>
<stop offset="0.74" stop-color="#93773E"/>
<stop offset="0.88" stop-color="#7F5B21"/>
<stop offset="1" stop-color="#A36E11"/>
</linearGradient>
<linearGradient id="paint63_linear_1628_10908" x1="52.7675" y1="109.172" x2="295.317" y2="292.471" gradientUnits="userSpaceOnUse">
<stop stop-color="#A37A1E"/>
<stop offset="0.17" stop-color="#B58B30"/>
<stop offset="0.31" stop-color="#93712C"/>
<stop offset="0.53" stop-color="#B27C1D"/>
<stop offset="0.74" stop-color="#93773E"/>
<stop offset="0.88" stop-color="#7F5B21"/>
<stop offset="1" stop-color="#A36E11"/>
</linearGradient>
<linearGradient id="paint64_linear_1628_10908" x1="56.6194" y1="104.075" x2="299.169" y2="287.375" gradientUnits="userSpaceOnUse">
<stop stop-color="#A37A1E"/>
<stop offset="0.17" stop-color="#B58B30"/>
<stop offset="0.31" stop-color="#93712C"/>
<stop offset="0.53" stop-color="#B27C1D"/>
<stop offset="0.74" stop-color="#93773E"/>
<stop offset="0.88" stop-color="#7F5B21"/>
<stop offset="1" stop-color="#A36E11"/>
</linearGradient>
<linearGradient id="paint65_linear_1628_10908" x1="89.6259" y1="60.4" x2="332.176" y2="243.7" gradientUnits="userSpaceOnUse">
<stop stop-color="#A37A1E"/>
<stop offset="0.17" stop-color="#B58B30"/>
<stop offset="0.31" stop-color="#93712C"/>
<stop offset="0.53" stop-color="#B27C1D"/>
<stop offset="0.74" stop-color="#93773E"/>
<stop offset="0.88" stop-color="#7F5B21"/>
<stop offset="1" stop-color="#A36E11"/>
</linearGradient>
<linearGradient id="paint66_linear_1628_10908" x1="44.2356" y1="120.461" x2="286.786" y2="303.761" gradientUnits="userSpaceOnUse">
<stop stop-color="#A37A1E"/>
<stop offset="0.17" stop-color="#B58B30"/>
<stop offset="0.31" stop-color="#93712C"/>
<stop offset="0.53" stop-color="#B27C1D"/>
<stop offset="0.74" stop-color="#93773E"/>
<stop offset="0.88" stop-color="#7F5B21"/>
<stop offset="1" stop-color="#A36E11"/>
</linearGradient>
<linearGradient id="paint67_linear_1628_10908" x1="55.2169" y1="105.934" x2="297.767" y2="289.234" gradientUnits="userSpaceOnUse">
<stop stop-color="#A37A1E"/>
<stop offset="0.17" stop-color="#B58B30"/>
<stop offset="0.31" stop-color="#93712C"/>
<stop offset="0.53" stop-color="#B27C1D"/>
<stop offset="0.74" stop-color="#93773E"/>
<stop offset="0.88" stop-color="#7F5B21"/>
<stop offset="1" stop-color="#A36E11"/>
</linearGradient>
<clipPath id="clip0_1628_10908">
<rect width="360" height="360" fill="white"/>
</clipPath>
</defs>
</svg>
